<svg version="1.1" xmlns="http://www.w3.org/2000/svg"  xmlns:xlink="http://www.w3.org/1999/xlink" x="0px" y="0px" width="512px"
	 height="60px" viewBox="0 0 512 60" >
		<g id="arrow">
			<path fill="none" stroke-miterlimit="10" stroke-width="4" d="M73.83 30L438.17 30"/><path d="M77.05,9.77c-5,8.44-12.78,15.07-21,20.23a64.61,64.61,0,0,1,21,20.23h5A70,70,0,0,0,62.71,30,71.1,71.1,0,0,0,82.12,9.77Z"/><path  d="M89.08,9.77c-5,8.44-12.77,15.07-21,20.23a64.48,64.48,0,0,1,21,20.23h5A70,70,0,0,0,74.75,30,71.38,71.38,0,0,0,94.16,9.77Z"/><path  d="M435,9.77C440,18.21,447.73,24.84,456,30A64.61,64.61,0,0,0,435,50.23h-5A70,70,0,0,1,449.29,30,71.1,71.1,0,0,1,429.88,9.77Z"/><path d="M422.92,9.77c5,8.44,12.77,15.07,21,20.23a64.48,64.48,0,0,0-21,20.23h-5A70,70,0,0,1,437.25,30,71.38,71.38,0,0,1,417.84,9.77Z"/>
		</g>
	</svg>